<svg viewBox="0 0 500 500" fill="none"
    xmlns="http://www.w3.org/2000/svg">
    <path d="M355.111 373.322L376.824 400.638C363.516 430.055 322.892 470.679 263.356 497.996C234.639 512.004 203.821 523.211 165.298 523.211C129.577 523.211 98.0582 521.109 67.2399 521.109C39.2233 521.109 13.3079 521.81 5.60332 523.211L0 499.396C65.8391 427.254 165.999 350.208 217.129 294.175C194.716 292.774 150.589 290.672 132.379 290.672C116.269 290.672 100.159 296.276 84.0499 304.681L78.4466 292.774C85.4507 243.745 107.164 211.526 140.083 211.526C170.201 211.526 227.635 227.635 282.968 227.635C302.58 227.635 323.592 224.833 344.605 222.732L355.111 234.639C286.47 309.584 179.306 395.034 135.18 439.861C143.585 437.76 154.091 435.659 173.703 435.659C194.015 435.659 223.433 439.161 255.652 439.161C273.162 439.161 289.272 435.659 312.385 418.849C332.697 404.14 346.706 390.132 355.111 373.322Z" fill="black" />
</svg>